<svg width="459" height="367" viewBox="0 0 459 367" fill="none" xmlns="http://www.w3.org/2000/svg">
<path d="M446.8 300.775C447.56 300.915 449.05 305.395 449.08 305.665C449.68 311.215 446.8 307.835 446.8 300.775Z" fill="#222222"/>
<path d="M334.36 148.265C335.02 149.965 341.05 169.885 341.53 172.055C342.43 176.135 342.87 181.195 343.49 185.415C344.64 193.305 345.44 201.255 346.1 209.205C340.3 213.635 321.23 217.195 315.14 214.745C309.78 212.595 328.8 213.765 318.4 212.785V211.485C330.86 213.145 356.37 192.755 332.09 206.925C330.6 207.415 312.51 210.515 315.8 208.225C322.67 207.365 329.36 204.985 333.72 199.425C326.64 202.075 306.24 205.975 316.12 202.035C304.88 203.475 328.57 197.835 327.85 195.515L309.6 199.425L316.77 194.865L310.9 195.515C314.66 194.415 324.55 188.025 315.14 192.585L314.81 191.605C318.72 189.115 325.98 184.965 316.11 188.345C317.4 187.155 324.54 178.585 324.58 177.915C324.8 174.135 309.66 194.085 308.94 190.295C319.24 173.025 318.1 151.725 327.52 134.565C329.81 139.055 332.53 143.565 334.36 148.255V148.265Z" fill="white"/>
<path d="M347.4 222.565C348.32 232.435 350.25 256.065 349.36 264.275C347.79 278.715 331.67 293.815 327.53 271.445C329.83 277.455 337.45 287.815 336.98 277.635C336.94 276.845 334.65 263.065 334.37 261.995C334.29 261.685 331.31 261.275 334.37 260.035L331.11 259.385C336.1 256.445 330.84 253.955 333.07 250.265L329.16 246.355L331.77 245.705C326.56 245.015 326.62 243.595 331.77 244.405C323.15 241.675 333.71 242.155 331.12 239.845C323.2 238.295 328.44 238.665 328.84 238.215C331.73 235.015 320.89 236.425 328.51 233.975C320.42 232.955 334.83 232.935 323.3 230.715C334.55 229.615 317.24 228.975 327.21 228.105C319.66 225.425 332.13 228.325 322 221.585L346.44 212.785C347.64 215.965 347.12 219.315 347.42 222.565H347.4Z" fill="white"/>
<path d="M398.89 241.465C398.32 242.585 397.36 244.955 396.93 243.425C400.73 234.395 381.84 254.095 373.14 259.065H351.96C349.86 258.525 350.86 261.605 350.66 265.255L349.36 264.275C350.25 256.055 348.32 232.435 347.4 222.565C348.65 220.685 349.46 221.665 351.31 220.605C356.41 217.695 367.15 207.725 372.82 203.335L351.31 219.305C351.3 219.135 349.43 219.345 351.96 216.045C355.7 214.565 370.84 202.915 371.84 201.705C375.42 197.385 367.14 203.685 366.3 204.315L366.95 200.405C369.71 198.075 374.12 195.525 373.14 193.885L352.61 210.175C352.41 209.855 353.41 207.615 352.61 206.915C372.54 195.475 382.73 180.755 354.57 203.655C351.62 204.755 352.85 203.145 352.61 203.005L374.12 186.385C369.01 189.905 356.03 197.995 352.61 201.705C352.91 200.195 351.96 200.755 351.31 199.745L374.12 182.475L351.31 198.445C351.18 198.085 350.61 196.655 350.66 196.485L372.17 179.865L371.84 178.885C366.8 183.475 357.62 189.095 353.26 193.225L351.96 191.925C359.3 187.175 365.8 180.535 372.82 175.305C372.98 174.015 372.18 174.505 371.19 174.975C370.3 175.405 357.95 185.595 355.87 187.355L356.52 183.445C361.71 179.905 366.67 175.955 371.84 172.365C372.57 171.715 372.44 171.395 371.51 171.065C370.27 170.615 369.29 171.475 368.58 172.365L368.25 171.065C369.33 170.105 370.59 169.295 371.51 168.135L370.53 167.805L347.39 185.405C346.45 185.655 344.69 185.235 343.48 185.405C342.86 181.175 342.43 176.125 341.52 172.045C341.04 169.875 335.01 149.955 334.35 148.255L336.31 146.955C337.11 148.385 336.75 149.285 337.94 150.215C349.7 151.055 390.23 149.095 395.3 150.215C396.43 150.465 399.01 152.075 399.54 153.145C401.4 156.915 400.34 226.615 400.84 237.225C398.07 239.165 399.1 241.045 398.88 241.465H398.89Z" fill="#222222"/>
<path d="M396.93 243.425C392.66 246.315 376.94 260.845 374.44 261.675C372.09 262.465 346.33 264.265 351.95 259.065H373.13C381.83 254.085 400.72 234.395 396.92 243.425L396.93 243.425Z" fill="white"/>
<path d="M351.96 191.935C351.35 192.325 350.76 192.625 350.33 193.235L350 192.255C351.76 190.395 353.93 189.005 355.87 187.365C357.95 185.605 370.3 175.405 371.19 174.985C372.18 174.515 372.98 174.025 372.82 175.315C365.8 180.545 359.3 187.185 351.96 191.935Z" fill="white"/>
<path d="M351.31 199.755C350.54 198.565 351.51 199.015 351.31 198.455L374.12 182.485L351.31 199.755Z" fill="white"/>
<path d="M352.61 203.015C352.42 202.905 349.89 204.665 352.61 201.715C356.03 198.005 369.01 189.915 374.12 186.395L352.61 203.015Z" fill="white"/>
<path d="M356.52 183.455C337.66 196.325 366.23 174.465 371.51 171.075C372.43 171.405 372.56 171.735 371.84 172.375C366.67 175.965 361.72 179.915 356.52 183.455Z" fill="white"/>
<path d="M352.61 206.925C347.28 209.985 352.68 205.195 354.57 203.665C382.74 180.765 372.55 195.475 352.61 206.925Z" fill="white"/>
<path d="M368.26 171.075C365.84 173.215 349.3 184.915 347.4 185.415L370.54 167.815L371.52 168.145C370.6 169.315 369.35 170.115 368.26 171.075Z" fill="white"/>
<path d="M350.66 196.495C351.29 194.305 351.85 194.575 353.27 193.235C357.63 189.105 366.8 183.485 371.85 178.895L372.18 179.875L350.67 196.495H350.66Z" fill="white"/>
<path d="M366.95 200.405C365.57 201.575 353.62 211.765 352.61 210.185L373.14 193.895C374.12 195.535 369.71 198.075 366.95 200.415V200.405Z" fill="white"/>
<path d="M351.31 220.605C349.97 220.445 351.36 219.975 351.31 219.305L372.82 203.335C367.15 207.725 356.41 217.695 351.31 220.605Z" fill="white"/>
<path d="M351.96 216.045C353.04 214.635 363.74 206.225 366.3 204.315C367.14 203.685 375.42 197.385 371.84 201.705C370.84 202.915 355.7 214.565 351.96 216.045Z" fill="white"/>
<path d="M338.6 152.175C341 150.655 392.6 151.325 395.31 152.175C395.84 152.345 398.08 155.145 398.24 155.755C399.34 159.845 397.41 223.265 398.24 236.575L373.15 257.755C347.63 259.115 342.58 257.845 372.17 256.125C362.55 254.615 348.65 258.415 351.31 252.215C352.29 249.925 355.18 253.565 355.55 249.285C357.7 252.265 368.55 252.105 369.89 248.635C367.86 255.545 383.64 240.835 384.23 238.205C379.98 238.795 353.12 239.545 351.64 238.855C350.68 238.405 350.37 236.795 350.66 235.925C351.38 233.795 394.31 237.595 395.63 234.625L394.98 156.415C393.83 153.815 341.78 156.615 339.25 155.435C338.09 154.895 337.89 152.625 338.6 152.175Z" fill="white"/>
<path d="M372.49 206.275C368.82 210.795 361.51 217.145 356.85 220.615C343.43 230.605 361.31 214.135 372.49 206.275Z" fill="white"/>
<path d="M372.49 214.745C374.88 214.455 369.81 218.595 367.28 220.615C364.54 222.795 356.99 228.185 353.92 228.765L372.5 214.755L372.49 214.745Z" fill="white"/>
<path d="M369.89 212.785C366.86 218.175 358.11 223.475 352.62 226.795L369.89 212.785Z" fill="white"/>
<path d="M350.66 179.545C356.96 174.505 363.99 169.755 370.87 165.535C364.53 170.615 358.19 176.385 350.66 179.545Z" fill="white"/>
<path d="M371.84 219.955C372.24 219.905 372.68 219.865 372.82 220.285C342.94 241.925 368.5 220.425 371.84 219.955Z" fill="white"/>
<path d="M356.85 163.255C357.25 163.205 357.69 163.165 357.83 163.585C336.82 181.465 353.66 163.695 356.85 163.255Z" fill="white"/>
<path d="M358.48 246.685H357.83C367.55 238.295 372.71 238.945 358.48 246.685Z" fill="white"/>
<path d="M361.74 169.115C356.85 172.845 356.59 172.845 351.31 175.635C355.33 172.775 358.1 171.475 361.74 169.115Z" fill="white"/>
<path d="M359.46 240.815C364.74 239.695 350.32 249.245 353.59 244.725C353.8 244.435 359.11 240.885 359.46 240.815Z" fill="white"/>
<path d="M359.13 167.165C356.54 169.095 352.53 172.925 349.35 173.355C352.05 170.435 355.86 169.115 359.13 167.165Z" fill="white"/>
<path d="M362.39 246.685C363.65 245.605 365.95 242.445 368.26 243.105C365.87 245.835 362.69 246.515 362.39 246.685Z" fill="white"/>
<path d="M362.39 246.685C361.01 247.865 359.86 251.155 358.48 248.965C360.69 246.485 362.2 246.805 362.39 246.685Z" fill="white"/>
<path d="M357.5 240.165C358.62 241.315 354.41 243.615 353.92 242.445C353.7 241.935 357.14 240.755 357.5 240.165Z" fill="white"/>
<path d="M378.03 241.465C370.2 244.405 377.11 239.905 377.7 240.165C378.3 240.425 377.93 241.405 378.03 241.465Z" fill="white"/>
<path d="M364.35 167.165C364.91 166.745 366.17 163.785 367.61 164.885C365.51 167.525 364.51 167.045 364.35 167.165Z" fill="#222222"/>
<path d="M364.35 167.165C363.33 167.925 363.12 168.235 361.74 169.125C362.58 168.485 363.55 167.795 364.35 167.165Z" fill="#222222"/>
<path d="M361.09 165.855C361.29 165.735 362.43 163.055 363.7 164.225C362.2 166.225 361.21 165.765 361.09 165.855Z" fill="#222222"/>
<path d="M365.32 227.125C365.72 227.075 366.16 227.035 366.3 227.455C367.16 229.965 360.06 227.845 365.32 227.125Z" fill="#222222"/>
<path d="M371.51 244.075H372.81C370.49 245.885 369.94 246.125 371.51 244.075Z" fill="#222222"/>
<path d="M351.64 243.425C351.87 243.275 353.07 243.325 353.27 243.755C353.76 244.835 349.53 244.855 351.64 243.425Z" fill="#222222"/>
<path d="M361.09 165.855C360.61 166.155 360.1 166.585 359.13 167.155C360.53 166.115 360.99 165.925 361.09 165.855Z" fill="white"/>
<path d="M369.89 240.815C370.86 240.425 371.32 241.805 370.54 242.115C369.57 242.505 369.11 241.125 369.89 240.815Z" fill="white"/>
<path d="M351.31 175.635C350.51 176.205 350.2 176.415 349.35 176.935C350.16 176.365 349.99 176.325 351.31 175.635Z" fill="white"/>
<path d="M376.4 243.425C377.37 243.035 377.83 244.415 377.05 244.725C376.08 245.115 375.62 243.735 376.4 243.425Z" fill="white"/>
<path d="M349.35 176.935C349.26 176.995 348.58 179.045 347.39 177.915C348.27 176.615 349.26 177.005 349.35 176.935Z" fill="#222222"/>
<path d="M366.63 246.025C368.14 246.815 365.47 248.135 365 247.005C364.96 246.915 366.55 245.985 366.63 246.025Z" fill="white"/>
<path d="M356.52 247.335C356.35 247.405 352.76 249.655 355.87 247.335H356.52Z" fill="white"/>
<path d="M350.66 179.545C350.56 179.585 349.91 181.665 348.7 180.525C349.58 179.215 350.57 179.615 350.66 179.545Z" fill="white"/>
<path d="M357.83 246.685H358.48C357.23 247.365 356.96 247.165 356.52 247.335H355.87C355.95 247.275 355.63 246.385 357.83 246.685Z" fill="#222222"/>
<path d="M364.02 248.635C364.99 248.245 365.45 249.625 364.67 249.935C363.7 250.325 363.24 248.945 364.02 248.635Z" fill="white"/>
<path d="M372.82 244.075H371.52C372.65 242.595 374.27 243.805 372.82 244.075Z" fill="white"/>
<path d="M378.03 241.465C380.22 241.105 378.66 242.835 378.36 242.765C377.79 242.645 378.12 241.515 378.03 241.465Z" fill="white"/>
<path d="M445.49 283.835C445.16 290.225 452.88 310.305 458.2 311.535V349.995C455.33 357.255 396.4 354.075 387.48 349.665C397.52 346.515 408.99 349.725 417.46 349.665C434.32 349.545 411.71 346.245 409.96 335.655C408.65 327.745 413.43 319.655 422.34 321.315C422.02 311.245 421.07 309.945 431.79 308.605C441.89 307.345 449.75 310.045 450.69 309.905C455.84 309.155 440.89 293.335 445.48 283.835H445.49Z" fill="#222222"/>
<path d="M429.2 309.905C439 308.125 451.29 310.615 431.81 313.165C429.45 315.845 452.56 314.895 454.95 313.495C454.78 318.795 455.4 346.325 453.97 348.365C449.52 354.725 452.81 318.395 451.69 316.105C434.99 318.495 416 312.315 429.2 309.915V309.905Z" fill="white"/>
<path d="M418.12 324.245C425.61 322.925 422.65 336.265 422.68 343.795C407.87 338.675 413.65 325.035 418.12 324.245Z" fill="white"/>
<path d="M336.32 146.955L334.36 148.255C332.52 143.565 329.81 139.055 327.52 134.565C318.11 151.725 319.25 173.015 308.94 190.295C309.66 194.085 324.8 174.135 324.58 177.915C324.54 178.585 317.4 187.155 316.11 188.345C325.98 184.955 318.72 189.115 314.81 191.605L315.14 192.585C324.55 188.025 314.66 194.415 310.9 195.515L316.77 194.865L309.6 199.425L327.85 195.515C328.57 197.835 304.88 203.465 316.12 202.035C306.24 205.975 326.64 202.075 333.72 199.425C329.36 204.975 322.66 207.365 315.8 208.225C312.52 210.505 330.61 207.415 332.09 206.925C356.37 192.755 330.86 213.155 318.4 211.485V212.785C328.8 213.755 309.78 212.585 315.14 214.745C321.23 217.195 340.3 213.635 346.1 209.205C345.45 201.255 344.65 193.305 343.49 185.415C344.7 185.245 346.46 185.665 347.4 185.415C349.29 184.915 365.84 173.215 368.26 171.075L368.59 172.375C369.3 171.485 370.28 170.625 371.52 171.075C366.23 174.475 337.67 196.335 356.53 183.455L355.88 187.365C353.94 189.005 351.77 190.395 350.01 192.255L350.34 193.235C350.77 192.615 351.36 192.325 351.97 191.935L353.27 193.235C351.85 194.575 351.29 194.305 350.66 196.495C350.61 196.665 351.19 198.095 351.31 198.455C351.51 199.025 350.54 198.575 351.31 199.755C351.96 200.765 352.91 200.205 352.61 201.715C349.89 204.665 352.42 202.905 352.61 203.015C352.85 203.165 351.61 204.765 354.57 203.665C352.69 205.195 347.29 209.985 352.61 206.925C353.41 207.625 352.41 209.865 352.61 210.185C353.62 211.765 365.57 201.575 366.95 200.405L366.3 204.315C363.75 206.225 353.04 214.645 351.96 216.045C349.43 219.345 351.3 219.135 351.31 219.305C351.36 219.975 349.97 220.445 351.31 220.605C349.46 221.655 348.65 220.675 347.4 222.565C347.1 219.315 347.62 215.965 346.42 212.785L321.98 221.585C332.11 228.325 319.64 225.425 327.19 228.105C317.22 228.975 334.53 229.615 323.28 230.715C334.81 232.935 320.4 232.955 328.49 233.975C320.87 236.415 331.71 235.005 328.82 238.215C328.42 238.665 323.18 238.295 331.1 239.845C333.69 242.155 323.13 241.675 331.75 244.405C326.6 243.595 326.54 245.015 331.75 245.705L329.14 246.355L333.05 250.265C330.82 253.965 336.08 256.455 331.09 259.385L334.35 260.035C331.29 261.275 334.27 261.685 334.35 261.995C334.63 263.075 336.92 276.845 336.96 277.635C337.43 287.815 329.81 277.445 327.51 271.445C331.66 293.815 347.77 278.715 349.34 264.275L350.64 265.255C350.84 261.605 349.84 258.525 351.94 259.065C346.32 264.255 372.07 262.455 374.43 261.675C376.93 260.845 392.65 246.315 396.92 243.425C397.34 244.955 398.3 242.595 398.88 241.465C423.32 277.225 388.46 304.885 357.17 318.045C363.86 322.185 364.91 338.455 357.17 342.165L364.34 342.815L326.86 346.395C325.02 347.355 317.63 353.295 317.08 353.565C303.16 360.495 283.82 366.145 306 363.345V364.645C274.53 366.815 243.07 366.855 211.49 366.605L66.14 362.695C75.01 362.395 84.67 361.135 93.52 361.395C94.01 361.405 93.68 362.685 94.17 362.695C125.42 363.585 156.73 363.385 188.03 363.345C186.28 360.515 181.56 363.255 178.91 361.385C66.54 363.035 76.58 360.225 181.52 360.085C182.32 359.295 179.14 358.175 178.91 358.125C167.94 356.045 56.49 360.355 30.95 358.775V357.475L174.34 356.175C175.15 355.935 173.13 354.895 173.04 354.875C166.49 353.385 58.59 356.005 38.77 354.875V353.575L168.48 352.925C169.2 352.615 167.29 351.665 167.18 351.625C160.47 349.295 43.98 351.905 25.09 350.975L23.79 349.675H162.62L163.27 348.375L0 346.095L157.08 344.795L62.9 341.865C75.3 339.915 138.03 343.915 144.37 341.865C144.71 341.755 145.68 340.745 145.02 340.565C120.57 340.515 96.13 339.185 71.69 340.235C96.54 336.915 121.91 339.345 146.97 338.605C147.62 338.425 146.66 337.415 146.32 337.305C138.61 334.805 45.01 337.945 27.37 336.325C66.4 335.235 105.7 334.035 144.69 335.675L136.54 325.575C108.23 326.945 79.75 326.215 51.48 324.595L136.86 323.945C138.21 322.325 119.41 310.385 113.72 305.365C110.14 302.205 100.71 292.865 98.4 289.395C79.38 260.865 102.32 232.065 135.55 248.985C132.5 230.365 141.79 219.345 136.2 206.615C143.51 185.685 143.96 137.175 163.25 124.165C169.85 119.715 202.18 109.665 208.87 104.615C216.82 98.6151 210.07 92.6651 228.1 90.6051C228.42 86.6851 229.48 74.8451 228.1 72.3551C227.2 70.7351 224.75 73.3851 222.23 70.3951C221.44 69.4551 213.72 49.1851 220.93 48.8851C221.53 45.3551 218.5 39.3951 218.32 37.1551C216.52 14.0651 224.75 16.3351 238.85 3.58512C258.32 -7.07488 292.65 8.16512 294.58 21.5051C296.58 35.3051 287.88 32.9951 286.76 39.1051C282.92 60.4251 290.35 82.3351 273.07 99.0651C275.8 102.515 276.01 103.395 279.91 105.905C286.35 110.045 320.03 123.345 326.19 128.715C332.44 134.175 335.77 146.025 336.29 146.965L336.32 146.955Z" fill="#222222"/>
<path d="M353.59 319.685C364.7 316.645 366.4 349.815 343.81 341.845C332.68 337.915 345.68 331.205 353.59 319.685Z" fill="white"/>
<path d="M382.59 272.105L383.57 289.705C384.08 290.105 387.62 287.465 387.81 286.775C388.4 284.565 385.2 273.495 388.79 285.795C406.16 258.585 396.21 281.935 386.83 290.355C378.36 297.955 350.52 310.455 339.25 319.035C326.48 328.755 316.89 345.645 287.43 353.905C302.66 342.575 332.7 337.395 330.12 313.825C332.79 319.225 328.5 327.675 331.75 324.575C335.84 320.675 337.09 307.015 335.33 301.435C340.6 308.985 334.32 319.715 336.63 319.685C350.18 307.775 367.36 300.935 381.93 290.685C381.57 284.365 382.94 277.765 380.63 271.785C381.45 270.735 382.01 272.235 382.59 272.115V272.105Z" fill="white"/>
<path d="M102 276.665L113.73 291.005C118.55 264.915 113.88 286.915 115.36 291.985C116.14 294.675 147.77 317.735 151.53 323.595C152.71 323.205 145.38 310.275 151.53 299.475C150.1 307.575 149.53 318.915 154.46 325.875C158.69 331.835 156.46 325.835 156.42 324.575C155.69 304.765 157.9 327.695 159.68 331.095C163.92 339.175 184.72 349.725 193.57 353.255C170.77 350.885 158.07 330.385 142.4 316.425C129.09 304.565 106.91 291.485 101.99 276.665H102Z" fill="white"/>
<path d="M172.39 272.105C173.96 272.045 174.2 272.025 174.02 273.735C171.91 284.125 172.55 279.095 160.33 277.645C162.38 277.215 171.72 272.125 172.39 272.105Z" fill="white"/>
<path d="M314.48 277.965C314.66 277.875 318.07 277.855 318.39 277.965C330.41 282.095 305.53 282.225 314.48 277.965Z" fill="white"/>
<path d="M337.3 337.275C337.8 337.275 339.91 340.445 339.58 340.855C329.5 343.295 336.77 337.265 337.3 337.275Z" fill="white"/>
<path d="M382.59 272.105C382.66 272.095 382.35 271.045 382.92 270.805L387.81 274.385C385.71 276.875 384.26 273.355 382.6 272.105H382.59Z" fill="white"/>
<path d="M115.04 270.795C119.34 269.645 116.11 272.875 110.8 273.725C111.9 272.955 114.36 270.975 115.04 270.795Z" fill="white"/>
<path d="M148.28 272.105L155.12 273.085C153.1 274.595 148.8 274.585 148.28 272.105Z" fill="white"/>
<path d="M283.2 69.3951C288.67 69.2351 268.34 118.665 269.84 86.6651C269.9 85.4251 272.11 72.9651 272.45 72.3251C276.89 63.9551 274.15 92.8751 283.2 69.3951Z" fill="white"/>
<path d="M270.16 74.6051L266.9 92.8551C255.56 89.0451 249.46 94.0051 250.93 85.3551C252.49 76.1851 262.42 86.0351 270.16 74.6051Z" fill="white"/>
<path d="M232.68 25.7251H232.03C230.1 5.94513 259.13 1.12512 270.16 12.6851C255.23 5.04512 241.49 12.2051 238.22 28.3251C236.06 12.8951 255.36 5.51512 242.78 9.42512C235.24 11.7651 234.24 20.0751 232.68 25.7151V25.7251Z" fill="white"/>
<path d="M262.99 17.2551C274.07 15.7951 284.59 23.3151 284.82 24.7551C285.1 26.4351 280.2 23.2051 286.12 28.6651C285.67 29.6251 278.23 24.7351 274.06 24.4251C266.3 23.8551 251.96 29.1951 269.5 23.1251L263.31 22.7951C278.95 18.9351 261.47 16.4151 253.86 23.1251C253.17 20.2751 261.27 17.4851 262.98 17.2551H262.99Z" fill="white"/>
<path d="M263.32 39.4151C265.21 48.5851 263.32 40.2951 261.69 40.7151C260.8 40.9451 264.18 46.8251 259.08 41.3651C259.79 50.1351 257.69 42.7451 256.47 43.3251C248.35 47.1551 263.09 44.6551 253.86 47.8851C248.72 38.0551 254.28 54.7351 249.3 43.3251L248.65 47.2351L246.69 42.6751C245.74 52.8951 244.38 35.0651 243.43 45.2851L242.13 41.3751C238.7 50.5451 239.9 31.1351 241.48 38.1151C244.9 35.3251 243.46 39.6951 244.74 39.4151C245.23 39.3051 244.82 36.7251 246.04 37.4551C247.22 38.1651 245.09 41.9651 248 38.1051C248.89 44.7051 249.7 39.4651 249.96 39.4051C250.77 39.2351 250.96 41.9351 251.26 42.0151C252.71 42.3651 251.38 36.2451 253.87 40.7151C254.82 37.9851 257.53 40.1251 257.78 40.0651C258.85 39.7851 256.75 37.8551 257.78 37.4551C258.25 37.2751 262.22 38.9551 263.32 39.4151Z" fill="white"/>
<path d="M279.94 54.4051C281.59 54.3251 280.92 75.5251 282.22 56.0351C283.66 53.5151 286.18 69.3951 281.24 70.0451C274.89 70.8951 277.17 56.9351 279.94 54.4051Z" fill="white"/>
<path d="M270.16 33.5451C274.16 34.0751 274.22 38.0151 274.72 33.5451C280 37.9251 277.29 43.7651 276.02 38.1051C275.1 44.7351 274.13 32.9751 272.76 40.0651L270.15 33.5451H270.16Z" fill="white"/>
<path d="M268.21 34.1951C268.65 34.2551 272.96 41.9351 267.88 39.0851C271.21 42.3851 265.79 39.7951 265.27 37.1251C264.4 32.6051 266.94 36.9551 267.55 36.7951C267.68 36.7651 266.95 34.0151 268.2 34.1851L268.21 34.1951Z" fill="white"/>
<path d="M259.08 15.2951L268.53 15.6251C260 15.4951 246.58 21.2951 259.08 15.2951Z" fill="white"/>
<path d="M276.68 15.2951C287.55 21.2051 287.73 25.2051 276.68 15.9451L276.35 15.6151L276.68 15.2851V15.2951Z" fill="white"/>
<path d="M245.39 2.91512C245.94 2.86512 247.42 2.71512 247.67 3.24512C234.35 9.34512 237.35 3.64512 245.39 2.91512Z" fill="#222222"/>
<path d="M255.17 10.7351C255.56 10.6151 256.63 10.6151 256.8 11.0651C242.96 24.6251 252.8 11.4851 255.17 10.7351Z" fill="white"/>
<path d="M238.88 35.5051L238.23 42.6751C236.58 40.4151 237.18 37.4951 238.88 35.5051Z" fill="white"/>
<path d="M235.62 30.9351L236.6 31.2651C232.01 41.0151 229.91 39.9051 235.62 30.9351Z" fill="white"/>
<path d="M263.32 39.4151C261.59 30.9951 266.95 40.4751 264.95 40.7151C264.85 40.7251 264.24 39.7951 263.32 39.4151Z" fill="white"/>
<path d="M236.92 34.1951L234.96 40.7151C233.9 38.4751 235.45 35.9551 236.92 34.1951Z" fill="white"/>
<path d="M263.64 2.26512C272.26 6.66512 273.03 8.70512 263.64 3.56512V2.26512Z" fill="#222222"/>
<path d="M225.19 27.6851C224.65 31.8751 226.22 31.0551 226.17 31.2651C225.53 33.9951 221.95 32.4651 225.19 27.6851Z" fill="#222222"/>
<path d="M278.64 35.5051C279.93 36.2151 280.37 40.3151 279.29 40.0651C278.73 39.9351 277.72 36.2951 278.64 35.5051Z" fill="white"/>
<path d="M229.75 34.8551C230.16 34.7351 230.63 34.8251 230.73 35.1851C231.32 37.4051 226.22 35.9151 229.75 34.8551Z" fill="white"/>
<path d="M227.14 34.1951H227.8L228.12 34.5251L227.8 34.8551L227.47 35.1751L227.14 35.5051L226.82 35.1751V34.5251L227.14 34.1951Z" fill="white"/>
<path d="M232.03 25.7251H232.68C232.51 26.3251 232.96 27.6851 232.35 27.6851C231.76 27.3051 232.1 26.5051 232.02 25.7251L232.03 25.7251Z" fill="white"/>
<path d="M246.7 92.2051C257.83 92.3651 266.9 91.9151 273.1 102.305L272.12 103.285C255.29 100.455 237.15 103.065 220.95 102.305C232.48 99.0751 205.03 102.855 227.47 98.3951L219.97 98.0651C235.25 93.5951 214.36 96.6351 222.58 94.1551C226.95 92.8351 241.77 92.1251 246.7 92.1951V92.2051Z" fill="white"/>
<path d="M151.21 235.605L152.19 233.645L149.91 234.295C150.2 232.565 154.55 231.865 150.56 229.405C156.98 225.545 153.01 225.215 153.17 224.845C154.78 221.075 168.54 220.125 166.86 232.665C166.59 234.705 156.67 256.255 155.45 257.105C150.76 260.405 154.45 253.995 149.26 254.175C156.42 251.355 150.21 251.385 149.91 250.915C149.71 250.605 154.42 248.655 149.91 248.955C156.17 244.925 146.18 249.015 152.52 245.045C146.9 243.545 153.53 243.405 149.26 242.435C154.31 239.925 143.86 241.465 153.17 238.525C147.93 237.165 152.84 238.205 151.21 235.595V235.605Z" fill="white"/>
<path d="M175.65 298.825C191.19 320.025 203.15 316.445 224.53 321.635C238.16 324.945 238.88 325.675 223.88 326.845C199.95 328.715 184.81 321.695 175.65 298.815V298.825Z" fill="white"/>
<path d="M176.3 233.645C177.83 257.305 184.09 279.705 201.07 296.865C184.26 285.605 183.5 275.725 180.54 270.465C179.43 268.495 163.35 256.545 176.3 233.635V233.645Z" fill="white"/>
<path d="M158.05 134.575C157.12 156.765 168.55 167.415 169.78 183.455L157.72 164.225C150.18 163.335 149.78 161.575 157.72 162.925C155.96 153.845 155.78 143.205 158.05 134.575Z" fill="white"/>
<path d="M143.06 208.225C158.24 209.185 179.51 209.915 163.27 213.435C152.39 215.795 140.14 209.735 143.06 208.225Z" fill="white"/>
<path d="M315.79 248.635C321.99 262.665 300.94 253.745 307.32 251.245C308.89 250.625 312.36 252.655 313.19 249.285C314.42 248.785 313.26 253.735 315.8 248.635H315.79Z" fill="white"/>
<path d="M148.93 201.055C159.81 201.805 174.7 202.515 165.88 204.315C161.33 205.245 145.33 202.865 148.93 201.055Z" fill="white"/>
<path d="M145.67 204.315C151.27 204.745 158.53 204.335 163.92 204.965C177.81 206.595 156.21 209.125 145.67 204.315Z" fill="white"/>
<path d="M217.04 230.385C207.49 233.725 199.41 239.215 189.66 241.795C194.12 240.055 213.44 228.845 216.06 229.085C217.07 229.175 217.17 229.195 217.04 230.385Z" fill="white"/>
<path d="M311.22 229.085C316.11 241.155 308.4 240.335 308.29 237.885C308.27 237.425 311.13 230.805 311.22 229.085Z" fill="white"/>
<path d="M152.19 168.465C164.75 169.885 155.51 170.695 155.77 171.395C166.72 173.695 144.99 174.665 153.81 172.045C148.13 168.955 155.88 172.295 152.18 168.465H152.19Z" fill="white"/>
<path d="M148.93 199.105L168.16 200.085C162.09 202.095 154.81 201.105 148.93 199.105Z" fill="white"/>
<path d="M157.73 259.715L150.56 261.345L158.38 261.675C158.41 261.855 158.41 262.155 158.38 262.325C155.71 261.975 153.17 262.805 150.56 262.975C144.56 263.375 151.18 261.125 150.56 260.045C144.02 259.285 155.81 257.185 157.73 259.715Z" fill="white"/>
<path d="M148.28 193.885L166.2 195.515C160.36 196.045 153.73 196.355 148.28 193.885Z" fill="white"/>
<path d="M150.89 188.675L165.56 190.305C163.85 191.955 149.75 191.165 150.89 188.675Z" fill="white"/>
<path d="M150.23 196.495C171.86 197.275 172.03 199.645 150.23 197.795V196.495Z" fill="white"/>
<path d="M328.82 201.705C329.9 202.245 327.36 204.065 326.86 204.315C316.74 209.385 304.53 208.695 328.82 201.705Z" fill="white"/>
<path d="M307.97 259.715C326.79 258.625 314.79 263.845 308.62 261.675C308.13 261.505 307.07 260.165 307.97 259.715Z" fill="white"/>
<path d="M149.58 191.275L165.55 192.905C161.96 193.845 151.18 193.485 149.58 191.275Z" fill="white"/>
<path d="M149.58 179.545L163.59 181.825C158.82 181.255 149.59 181.495 149.58 179.545Z" fill="white"/>
<path d="M151.54 184.105C160.38 183.105 170.93 187.975 154.15 186.065C152.51 185.875 147.6 184.555 151.54 184.105Z" fill="white"/>
<path d="M149.58 186.715L163.59 188.345C159.69 188.565 152.4 188.595 149.58 186.715Z" fill="white"/>
<path d="M154.8 174.335C155.66 174.335 161.77 176.035 161.64 176.615C154.06 177.325 145.65 174.395 154.8 174.335Z" fill="white"/>
<path d="M152.19 176.935C159.63 175.605 167.75 181.435 150.56 177.915C151.03 177.855 152.08 176.955 152.19 176.935Z" fill="white"/>
<path d="M307.31 257.105L317.41 258.085C313.11 258.555 306.7 259.095 307.31 257.105Z" fill="white"/>
<path d="M158.38 262.325C158.25 262.995 158.25 263.755 157.73 264.285C155.79 264.365 153.8 264.175 151.86 264.285L150.56 262.985C153.18 262.815 155.71 261.985 158.38 262.335L158.38 262.325Z" fill="#222222"/>
<path d="M150.23 182.155L161.64 183.135C161.64 183.725 150.8 184.025 150.23 182.155Z" fill="white"/>
<path d="M157.73 259.715C158.23 260.375 158.24 260.895 158.38 261.675L150.56 261.345L157.73 259.715Z" fill="#222222"/>
<path d="M148.93 270.145L155.77 271.125C153.94 272.495 149.54 272.735 148.93 270.145Z" fill="white"/>
<path d="M310.25 246.025C310.4 245.815 309.85 244.295 312.53 241.465C314.69 244.945 310.49 245.855 310.25 246.025Z" fill="white"/>
<path d="M151.86 264.275C153.8 264.165 155.79 264.355 157.73 264.275C156.63 265.385 148.48 265.295 148.61 264.605C149.29 263.995 150.63 264.355 151.87 264.275H151.86Z" fill="white"/>
<path d="M152.84 266.235C158.37 266.065 157.47 268.185 149.58 267.535C149.25 267.085 152.66 266.235 152.84 266.235Z" fill="white"/>
<path d="M152.84 164.555C153.42 164.235 157.11 165.315 157.08 165.535C156.91 166.615 151.18 165.475 152.84 164.555Z" fill="white"/>
<path d="M154.14 166.515C154.72 166.385 157.75 167.305 157.72 167.495C157.53 168.685 150.6 167.315 154.14 166.515Z" fill="white"/>
<path d="M308.62 240.815C312.44 239.805 309.93 242.795 308.62 242.775C307.91 242.765 307.35 241.155 308.62 240.815Z" fill="white"/>
<path d="M153.49 159.995C154.46 159.515 156.16 160.775 155.77 161.625C155.52 162.185 152.51 160.485 153.49 159.995Z" fill="white"/>
<path d="M153.49 144.355C153.62 144.305 155.82 145.855 155.77 145.985C155.2 147.465 151.91 144.955 153.49 144.355Z" fill="#222222"/>
<path d="M310.25 246.025C309.61 246.925 308.97 247.875 307.64 247.655C307.38 246.265 309.97 246.225 310.25 246.025Z" fill="white"/>
<path d="M151.21 235.605C151.16 235.525 149.77 235.105 149.91 234.305L152.19 233.655L151.21 235.615L151.21 235.605Z" fill="#222222"/>
<path d="M153.49 150.865C154.4 150.415 155.84 151.625 155.77 151.845C155.42 153.015 152.41 151.405 153.49 150.865Z" fill="white"/>
<path d="M322.96 223.865C324.33 223.395 325.27 224.545 324.26 225.165C323.68 225.525 322.19 224.125 322.96 223.865Z" fill="white"/>
<path d="M154.14 158.035C154.68 157.705 155.81 158.925 155.77 159.015C155.28 160.095 152.68 158.925 154.14 158.035Z" fill="#222222"/>
<path d="M153.49 146.955C153.8 146.845 155.81 147.805 155.77 147.935C155.44 149.165 152.34 147.365 153.49 146.955Z" fill="white"/>
<path d="M321 197.795C322.51 198.585 319.84 199.905 319.37 198.775C319.33 198.685 320.92 197.755 321 197.795Z" fill="white"/>
<path d="M153.49 154.775C153.9 154.585 155.77 154.735 155.77 155.105C155.77 155.845 152.2 155.375 153.49 154.775Z" fill="white"/>
<path d="M148.28 251.245C148.36 251.205 149.95 252.135 149.91 252.225C149.44 253.355 146.77 252.035 148.28 251.245Z" fill="#222222"/>
<path d="M154.8 143.045H155.45L155.77 143.375V144.025L155.45 144.355L155.12 144.025L154.8 143.695L154.47 143.375L154.8 143.045Z" fill="white"/>
<path d="M191.62 268.845C192.01 269.485 191.77 272.485 195.2 272.755C197.23 272.915 226.94 264.955 234.31 264.935C220.75 263.615 207.29 269.475 193.9 271.455C197.45 269.295 203.45 267.885 207.59 266.895C215.1 265.095 247.41 260.145 222.58 262.985L233.01 260.375C221.6 259.075 205.7 268.475 194.23 268.195C206.32 265.685 218.27 261.015 230.08 257.445C217.54 258.855 205.67 263.605 193.58 266.895C193.6 265.615 201.81 262.855 205.64 261.685C218.61 257.715 246.81 252.015 216.07 257.125L193.58 263.645C193.46 262.895 193.57 263.425 193.58 262.995C205.52 258.075 218.27 255.625 230.73 252.245C230.67 249.795 199.49 259.955 194.23 259.745C201.74 256.055 213.52 255.085 221.61 251.595C191.9 258.055 202.95 255.095 223.57 248.335C215.19 247.275 196.82 257.365 194.57 257.785C187.93 259.015 203.63 251.925 208.91 249.965C218.84 246.275 232.97 243.805 212.82 247.355C173.7 263.435 200.77 249.895 219.01 243.775C215.83 242.225 192.17 254.095 191.63 252.245C200.4 247.495 210.65 245.175 219.66 240.515C211.85 240.505 196.52 249.855 190.98 249.315C201.38 244.815 211.8 240.375 222.92 237.905C222.53 235.205 192.51 246.595 190.33 248.005C191.77 244.915 215.27 235.505 219.66 232.685C211.89 233.195 199.48 242.265 193.26 244.095C181.7 247.485 216.67 232.035 217.05 230.405C230.25 225.785 218.39 228.805 212.81 229.105C191.14 239.935 177.15 242.145 208.25 229.105C209.21 228.705 225.27 224.055 216.72 225.195C208.32 226.315 195.27 234.725 186.41 235.945L214.76 222.585C204.93 223.755 195.09 231.695 184.45 233.335L214.43 219.645C210.86 217.995 185.19 232.095 184.45 230.075C215.48 214.745 217.65 214.335 183.8 226.815C191.42 222.725 200.04 219.995 207.59 215.405C223.25 211.965 225.34 210.105 208.24 214.105C189.03 223.525 167.52 230.095 202.37 214.755C205.48 213.385 221.84 207.755 209.54 210.845C200.65 213.075 192.47 219.685 183.14 220.945L208.23 208.235C200.67 208.595 192.42 216.085 184.77 218.665C194.37 211.675 204.42 204.765 216.38 202.695C207.05 200.545 186.79 215.795 185.75 213.775C191.29 209.615 197.73 206.165 204.33 203.675C189.24 207.305 172.62 219.695 198.46 203.025C206.41 199.765 218.37 195.915 201.07 200.415C171.3 218.865 185.85 204.945 207.26 196.175C196.51 195.945 172.27 216.735 194.55 198.455C217.61 190.535 210.43 189.525 195.85 196.495C189.69 199.445 177.13 210.615 190.64 197.795C197.69 194.435 209.97 185.815 194.55 193.885C190.38 196.065 175.86 205.065 189.34 195.185C195.97 190.325 211.96 183.685 193.9 190.625C170.88 207.095 195.5 183.365 206.61 182.475C197.57 182.335 189.88 188.925 182.49 193.555C186.91 186.785 202.9 177.315 193.24 182.145C191.19 183.175 186.21 187.405 184.12 189.315L183.14 188.985C199.01 175.555 205.28 172.995 182.49 186.375C186.44 179.265 214.38 167.835 193.24 176.275C189.11 179.255 176.5 188.355 186.72 178.885C207.32 167.165 191.47 174.205 182.48 180.515C185.2 175.095 200.59 168.005 195.19 169.105C193.52 169.445 181.58 178.475 181.18 179.855C180.46 193.145 181.57 206.355 180.53 219.615H179.23C181.61 203.915 160.72 137.275 162.94 129.665C176.03 119.835 199.04 114.235 215.41 105.225L271.46 103.925C277.95 109.655 326.59 127.915 325.88 134.235C319.43 143.215 318.89 159.805 316.1 168.775C313.57 176.915 308 182.955 306.98 190.935H305.68C306.06 185.565 308.73 166.375 308.29 163.555C308.26 163.345 307.21 162.225 306.99 162.905C305.24 176.785 300.56 197.285 299.82 210.485C298.66 231.065 302.94 250.375 308.29 269.795C298.93 268.955 301.5 263.105 301.12 262.625C300.18 261.445 294.88 257.705 291.34 253.505C280.2 240.255 267.04 219.605 265.27 218.305C264.72 217.905 264.48 217.645 263.97 218.305C271.12 235.805 290.82 265.355 308.29 271.755C307.49 277.675 309.41 277.475 312.2 281.535C310.97 287.315 315.28 288.475 316.11 293.915C319.36 315.165 297.19 335.095 277.33 337.255C273.82 337.635 214.9 337.635 211.5 337.255C192.76 335.175 167.63 316.825 173.04 295.545C189.06 347.485 228.34 327.395 255.82 329.435C267.78 330.325 277.15 339.875 303.73 320.635C298.32 322.365 293.6 326.655 287.76 327.475C266 330.555 206.89 312.155 186.73 298.145V296.845C210.12 304.415 234.1 311.305 257.45 318.025C246.27 316.705 234.61 312.655 223.56 310.855C248.56 319.625 303.52 337.235 312.2 299.775C302.88 318.655 285.23 325.305 265.27 318.675C279.94 312.895 293.47 304.565 304.38 293.255C289.49 302.225 301.89 293.585 303.4 285.755C292.23 298.075 285.34 306.775 267.55 307.265V308.565C284.32 307.485 258.19 310.755 268.85 310.525C260.52 318.265 225.74 304.265 216.71 298.795C210.12 294.805 193.24 279.625 189.66 273.045C186.49 267.225 180.18 236.545 180.54 234.585C180.58 234.375 181.24 233.995 181.52 233.605C184.14 243.035 187.14 261.465 191.62 268.805V268.845Z" fill="white"/>
<path d="M191.62 268.845C191.88 268.175 193.29 268.385 194.23 268.195C205.71 268.475 221.6 259.075 233.01 260.375L222.58 262.985C247.41 260.145 215.09 265.095 207.59 266.895C203.45 267.885 197.46 269.295 193.9 271.455C207.3 269.475 220.75 263.615 234.31 264.935C226.94 264.955 197.23 272.915 195.2 272.755C191.77 272.485 192.01 269.485 191.62 268.845Z" fill="#222222"/>
<path d="M193.58 266.885C190.4 265.165 193.65 264.065 193.58 263.625L216.07 257.105C246.81 251.995 218.61 257.705 205.64 261.665C201.81 262.835 193.61 265.595 193.58 266.875V266.885Z" fill="#222222"/>
<path d="M193.58 262.975C193.65 260.785 191.61 261.035 191.62 260.695C191.64 260.235 193.87 259.895 194.23 259.715C199.49 259.925 230.67 249.775 230.73 252.215C218.26 255.595 205.52 258.045 193.58 262.965V262.975Z" fill="#222222"/>
<path d="M190.97 249.285C190.36 249.225 188.88 251.075 190.32 247.985C192.5 246.575 222.52 235.185 222.91 237.885C211.79 240.355 201.38 244.795 190.97 249.295V249.285Z" fill="#222222"/>
<path d="M234.31 120.885L237.24 160.965H238.54C238.63 152.435 239.84 138.955 245.06 132.285C236.8 156.695 246.73 214.185 255.81 239.505C254.66 239.925 245.7 220.805 245.06 218.975C238.82 201.355 231.37 141.385 234.31 120.885Z" fill="#222222"/>
<path d="M249.3 243.425C261.57 255.605 271.49 274.745 289.38 278.295C277.15 292.705 254.33 253.615 249.3 243.425Z" fill="#222222"/>
<path d="M257.13 177.595C265.59 195.455 273.32 214.395 287.76 228.435C268.91 221.375 261.16 195.635 257.13 177.595Z" fill="#222222"/>
<path d="M234.31 266.235C237.74 266.035 241.91 266.085 240.83 266.885C237.41 266.055 194.92 276.555 194.88 273.725C207.9 271.945 221.19 267.015 234.31 266.225V266.235Z" fill="#222222"/>
<path d="M229.75 269.495C246.38 267.885 228.73 271.305 223.88 272.755L238.22 272.105L200.74 275.685C210.1 274.215 220.43 270.395 229.74 269.495H229.75Z" fill="#222222"/>
<path d="M244.09 275.355C249.47 275.195 252.96 275.685 249.96 276.655C247.89 277.325 212.06 279.995 206.62 279.585C218.98 278.215 231.61 275.725 244.1 275.345L244.09 275.355Z" fill="#222222"/>
<path d="M242.14 277.965H253.22V279.265C249.82 277.765 208.57 284.795 208.57 281.545L242.14 277.965Z" fill="#222222"/>
<path d="M243.44 280.575H252.56V281.875C249.33 281.135 212.47 286.925 212.48 284.155L243.44 280.575Z" fill="#222222"/>
<path d="M235.62 273.405C237.79 273.365 239.97 273.435 242.14 273.405V274.705C229.19 274.195 215.28 279.065 202.71 276.985C213.6 276.545 224.76 273.605 235.63 273.405H235.62Z" fill="#222222"/>
<path d="M257.13 287.745C259.7 287.695 264.12 287.605 266.25 289.045L221.6 291.975C232.95 290.115 245.65 287.945 257.12 287.735L257.13 287.745Z" fill="#222222"/>
<path d="M246.05 283.185C270.93 282.755 231.71 287.515 215.74 286.765L246.05 283.185Z" fill="#222222"/>
<path d="M246.7 285.785C249.98 285.585 267.58 285.735 255.17 287.085C243.47 288.355 231.42 288.955 219.65 289.365C228.49 288.155 237.81 286.315 246.7 285.785Z" fill="#222222"/>
<path d="M253.22 290.355C257.01 290.145 273.96 290.355 260.39 291.655C249.49 292.705 236.99 293.405 226.82 293.285C235.5 292.945 244.64 290.815 253.22 290.355Z" fill="#222222"/>
<path d="M257.78 292.305C261.14 292.115 265.67 291.915 268.86 292.955L230.73 295.885C239.58 294.615 248.86 292.815 257.78 292.305Z" fill="#222222"/>
<path d="M262.99 294.265C267.13 294.035 276.32 294.345 266.25 295.565C233.24 299.565 220.6 296.635 262.99 294.265Z" fill="#222222"/>
<path d="M272.12 297.525C284.46 296.885 252.46 302.755 240.51 301.105C250.31 301.395 264.78 297.905 272.12 297.525Z" fill="#222222"/>
<path d="M266.25 296.215C278.16 295.335 268.7 297.525 263.64 298.175C229.34 302.555 236.96 298.395 266.25 296.215Z" fill="#222222"/>
<path d="M277.98 303.385C285.27 302.765 278.41 304.825 275.37 305.345C249.51 309.745 256.4 305.225 277.98 303.385Z" fill="#222222"/>
<path d="M273.42 299.475C290.73 298.075 262.17 303.065 260.38 302.735C256.39 302.005 271.07 299.665 273.42 299.475Z" fill="#222222"/>
<path d="M267.88 302.735V303.385C246.03 305.975 246.58 304.975 267.88 302.735Z" fill="#222222"/>
<path d="M191.3 166.515V167.815C176.89 178.745 178.46 174.675 191.3 166.515Z" fill="#222222"/>
<path d="M214.43 237.555L213.78 236.905C226.67 231.205 232.62 230.805 214.43 237.555Z" fill="white"/>
<path d="M267.88 302.735V303.385C284.04 301.465 283.88 301.055 267.88 302.735Z" fill="#222222"/>
<path d="M214.43 237.555L213.78 236.905C204.74 240.905 205.77 240.775 214.43 237.555Z" fill="#222222"/>
<path d="M185.43 173.025C187.25 173.025 186.03 173.615 184.45 175.305C180.52 179.515 180.05 177.725 185.43 173.025Z" fill="#222222"/>
<path d="M225.84 241.465C226.19 241.265 230.72 241.405 230.73 241.795C230.73 242.325 222.83 243.175 225.84 241.465Z" fill="white"/>
</svg>
